<svg xmlns="http://www.w3.org/2000/svg" width="169" height="26" fill="none" xmlns:v="https://vecta.io/nano"><path d="M114.663 20.493h-4.384V8.784l-6.073 11.709h-4.228L93.906 8.784v11.709h-4.402V3.816h5.985l6.594 12.614 6.612-12.614h5.968v16.677zm23.384 0h-4.419v-1.65c-.557.32-1.16.603-1.809.852a18.22 18.22 0 0 1-2.019.603c-.696.177-1.415.307-2.157.39a20.25 20.25 0 0 1-2.245.124 12.68 12.68 0 0 1-2.54-.248c-.824-.177-1.554-.455-2.192-.834-.627-.378-1.137-.875-1.531-1.49-.383-.615-.575-1.366-.575-2.253 0-1.124.302-2.058.905-2.803s1.525-1.36 2.767-1.845c1.229-.473 2.789-.84 4.68-1.1l6.716-.603v-.355a1.77 1.77 0 0 0-.209-.816c-.139-.272-.4-.509-.782-.71-.372-.213-.888-.385-1.549-.515-.65-.13-1.479-.195-2.488-.195a22.48 22.48 0 0 0-2.384.124l-2.262.355a20.08 20.08 0 0 0-2.053.515l-1.775.603V4.632l1.862-.426 2.158-.355 2.262-.249 2.192-.089c1.369 0 2.633.118 3.793.355 1.148.225 2.146.579 2.993 1.064.835.485 1.484 1.1 1.948 1.845.476.745.713 1.632.713 2.661v11.053zm-4.419-5.411v-2.2l-4.315.284-2.958.426c-.789.154-1.404.325-1.844.515-.453.189-.789.379-1.009.568-.221.201-.36.396-.418.586a2.26 2.26 0 0 0-.069.532c0 .201.052.39.156.568s.284.337.54.479.597.248 1.026.319c.429.083.969.124 1.618.124a14.03 14.03 0 0 0 2.123-.16c.684-.118 1.334-.278 1.949-.479.626-.189 1.212-.42 1.757-.692a11.27 11.27 0 0 0 1.444-.87zm13.867 5.411h-4.402V3.816h4.402v16.677zm9.535-16.677v9.545c0 .698.063 1.266.191 1.703s.331.787.609 1.047c.29.26.661.438 1.113.532.465.095 1.027.142 1.688.142H169v3.708h-9.274c-1.287 0-2.378-.107-3.271-.32-.904-.225-1.641-.556-2.209-.993a3.82 3.82 0 0 1-1.235-1.721c-.267-.686-.4-1.502-.4-2.448V3.816h4.419z" fill="#2894ff" style="mix-blend-mode:multiply"/><path d="M78.134 20.48h4.419V3.803h-4.419V20.48zm-10.865-6.813l7.934-9.864h0-4.959l-5.168 6.706-5.185-6.706H54.95l7.916 9.864v6.813h4.402v-6.813z" style="mix-blend-mode:multiply" fill="#f3774d"/><path d="M31.649 14.508L43.941 3.312H31.649 19.356l12.293 11.196zm-6.917-1.858l-7.949-7.24v14.48l7.949-7.24zm2.438 2.221l-8.524 7.764h26.005l-8.524-7.764-2.59 2.359a2.68 2.68 0 0 1-3.777 0l-2.59-2.359zm11.395-2.22l7.454 6.789V5.861l-7.454 6.789zM1.624 3.864h8.121c.897 0 1.624.742 1.624 1.656s-.727 1.656-1.624 1.656H1.624C.727 7.177 0 6.435 0 5.521s.727-1.656 1.624-1.656zm4.332 7.73h3.79c.897 0 1.624.742 1.624 1.656s-.727 1.656-1.624 1.656h-3.79c-.897 0-1.624-.742-1.624-1.656s.727-1.656 1.624-1.656z" style="mix-blend-mode:multiply" fill="#2894ff"/></svg>