<svg width="300" height="163" viewBox="0 0 300 163" fill="none" xmlns="http://www.w3.org/2000/svg">
  <g style="mix-blend-mode:multiply">
    <path d="M203.92 91.1405L283.12 20.8079H203.917H124.716L203.92 91.1405Z" fill="#2894FF"/>
    <path d="M159.355 79.4679L108.14 33.9873V124.949L159.355 79.4679Z" fill="#2894FF"/>
    <path d="M175.064 93.4207L120.143 142.192H287.7L232.775 93.4207L216.087 108.239C212.829 111.389 208.464 113.151 203.92 113.151C199.375 113.151 195.01 111.389 191.753 108.239L175.064 93.4207Z" fill="#2894FF"/>
    <path d="M248.484 79.4716L296.511 122.12V36.8217L248.484 79.4716Z" fill="#2894FF"/>
    <path d="M10.4657 24.2761H62.7905C68.5707 24.2761 73.2562 28.9343 73.2562 34.681C73.2562 40.4276 68.5707 45.0858 62.7905 45.0858H10.4657C4.68542 45.0858 0 40.4276 0 34.681C0 28.9343 4.68542 24.2761 10.4657 24.2761Z" fill="#2894FF"/>
    <path d="M38.3724 72.8302H62.7905C68.5707 72.8302 73.2562 77.4884 73.2562 83.235C73.2562 88.9817 68.5707 93.6399 62.7905 93.6399H38.3724C32.5921 93.6399 27.9067 88.9817 27.9067 83.235C27.9067 77.4884 32.5921 72.8302 38.3724 72.8302Z" fill="#2894FF"/>
  </g>
</svg>
